<?xml version="1.0" encoding="UTF-8"?>
<svg width="13px" height="16px" viewBox="0 0 13 16" version="1.1" xmlns="http://www.w3.org/2000/svg" xmlns:xlink="http://www.w3.org/1999/xlink">
    <!-- Generator: Sketch 45.2 (43514) - http://www.bohemiancoding.com/sketch -->
    <title>icon-trash-active</title>
    <desc>Created with Sketch.</desc>
    <defs></defs>
    <g id="Settings" stroke="none" stroke-width="1" fill="none" fill-rule="evenodd">
        <g id="retro---settings---format" transform="translate(-890.000000, -406.000000)" fill="#999999">
            <g id="icon-trash-active" transform="translate(890.000000, 406.000000)">
                <path style="fill: white" d="M8.51224242,13.7142857 L9.21345455,13.7142857 L9.21345455,8 L8.51224242,8 L8.51224242,13.7142857 Z M6.14860606,13.7142857 L6.84981818,13.7142857 L6.84981818,8 L6.14860606,8 L6.14860606,13.7142857 Z M3.7849697,13.7142857 L4.48618182,13.7142857 L4.48618182,8 L3.7849697,8 L3.7849697,13.7142857 Z M3.54545455,16 C2.89309091,16 2.33527273,15.7775238 1.87357576,15.3310476 C1.41187879,14.8845714 1.18181818,14.3451429 1.18181818,13.7142857 L1.18181818,5.71428571 L11.8181818,5.71428571 L11.8181818,13.7142857 C11.8181818,14.3451429 11.5881212,14.8845714 11.1264242,15.3310476 C10.6647273,15.7775238 10.1069091,16 9.45454545,16 L3.54545455,16 Z M1.18181818,2.28571429 L8.27272727,2.28571429 L9.45454545,2.28571429 L9.45454545,1.14285714 C9.45454545,0.821333333 9.34109091,0.550095238 9.11260606,0.330666667 C8.88569697,0.109714286 8.60521212,0 8.27272727,0 L4.72727273,0 C4.39478788,0 4.11430303,0.109714286 3.88739394,0.330666667 C3.65890909,0.550095238 3.54545455,0.821333333 3.54545455,1.14285714 L3.54545455,2.28571429 L4.72727273,2.26742857 L4.72727273,1.14285714 L8.27272727,1.14285714 L8.27272727,2.28571429 L11.8181818,2.28571429 C12.1506667,2.28571429 12.4311515,2.39542857 12.6580606,2.61638095 C12.8865455,2.83580952 13,3.10704762 13,3.42857143 L13,4.57142857 L0,4.57142857 L0,3.42857143 C0,3.10704762 0.113454545,2.83580952 0.341939394,2.61638095 C0.568848485,2.39542857 0.849333333,2.28571429 1.18181818,2.28571429 L1.18181818,2.28571429 Z" id="Page-1-Copy"></path>
            </g>
        </g>
    </g>
</svg>